<svg width="24" height="24" viewBox="0 0 24 24" xmlns="http://www.w3.org/2000/svg">
<path d="M12 7C11.4696 7 10.9609 7.21071 10.5858 7.58579C10.2107 7.96086 10 8.46957 10 9V15C10 15.5304 10.2107 16.0391 10.5858 16.4142C10.9609 16.7893 11.4696 17 12 17H14C14.5304 17 15.0391 16.7893 15.4142 16.4142C15.7893 16.0391 16 15.5304 16 15V9C16 8.46957 15.7893 7.96086 15.4142 7.58579C15.0391 7.21071 14.5304 7 14 7H12ZM12 9H14V15H12V9Z"/>
<path d="M3 7V17H5V12L7 17H9V7H7V12L5 7H3Z"/>
<path d="M17 10.5V12H20V13.5H18.5C17.6716 13.5 17 14.1716 17 15V18H19.25H21.5V16.5H18.5V15H20C20.8284 15 21.5 14.3284 21.5 13.5V12C21.5 11.1716 20.8284 10.5 20 10.5H17Z"/>
</svg>
