<svg width="24" height="24" viewBox="0 0 24 24" fill="none" xmlns="http://www.w3.org/2000/svg">
<path d="M15 7C14.4696 7 13.9609 7.21071 13.5858 7.58579C13.2107 7.96086 13 8.46957 13 9V15C13 15.5304 13.2107 16.0391 13.5858 16.4142C13.9609 16.7893 14.4696 17 15 17H17C17.5304 17 18.0391 16.7893 18.4142 16.4142C18.7893 16.0391 19 15.5304 19 15V9C19 8.46957 18.7893 7.96086 18.4142 7.58579C18.0391 7.21071 17.5304 7 17 7H15ZM15 9H17V15H15V9Z" fill="black"/>
<path d="M6 7V17H8V12L10 17H12V7H10V12L8 7H6Z" fill="black"/>
</svg>
